<?xml version="1.0" encoding="UTF-8" standalone="no"?>
<svg
   viewBox="0 0 258.01401 318.987"
   width="258.01401"
   height="318.987"
   version="1.1"
   id="svg7"
   sodipodi:docname="slovakia.svg"
   inkscape:version="1.3.2 (091e20e, 2023-11-25, custom)"
   xmlns:inkscape="http://www.inkscape.org/namespaces/inkscape"
   xmlns:sodipodi="http://sodipodi.sourceforge.net/DTD/sodipodi-0.dtd"
   xmlns="http://www.w3.org/2000/svg"
   xmlns:svg="http://www.w3.org/2000/svg"
   xmlns:rdf="http://www.w3.org/1999/02/22-rdf-syntax-ns#"
   xmlns:cc="http://creativecommons.org/ns#"
   xmlns:dc="http://purl.org/dc/elements/1.1/">
  <defs
     id="defs7" />
  <sodipodi:namedview
     id="namedview7"
     pagecolor="#505050"
     bordercolor="#ffffff"
     borderopacity="1"
     inkscape:showpageshadow="0"
     inkscape:pageopacity="0"
     inkscape:pagecheckerboard="1"
     inkscape:deskcolor="#505050"
     inkscape:zoom="1.1366667"
     inkscape:cx="309.23754"
     inkscape:cy="158.79765"
     inkscape:window-width="1920"
     inkscape:window-height="991"
     inkscape:window-x="-9"
     inkscape:window-y="-9"
     inkscape:window-maximized="1"
     inkscape:current-layer="svg7" />
  <title
     id="title1">Flag of Slovakia</title>
  <g
     id="g7"
     transform="translate(-140.993,-140.993)">
    <path
       fill="#ffffff"
       d="m 269.993,459.98 -3.906,-1.867 c -25.267,-12.173 -56.294,-30.4 -81.294,-58.133 -25,-27.733 -43.8,-65.307 -43.8,-114.24 0,-93.6 4.52,-136.68 4.52,-136.68 l 0.84,-8.067 h 247.28 l 0.84,8.067 c 0,0 4.534,43.093 4.534,136.68 0,48.933 -18.8,86.507 -43.814,114.24 -25,27.733 -56.026,45.96 -81.293,58.133 z"
       id="path4" />
    <path
       fill="#ed1c24"
       d="M 270,450 C 220.62,426.24 150,379.06 150,285.75 150,192.44 154.46,150 154.46,150 h 231.07 c 0,0 4.47,42.44 4.47,135.75 0,93.31 -70.63,140.49 -120,164.25"
       id="path5" />
    <path
       fill="#ffffff"
       d="m 280.56,261.28 c 13.36,0.22 39.45,0.74 62.67,-7.03 0,0 -0.61,8.31 -0.61,17.99 0,9.67 0.61,17.98 0.61,17.98 -21.3,-7.12 -47.61,-7.27 -62.67,-7.08 v 51.54 h -21.12 v -51.54 c -15.07,-0.2 -41.37,-0.04 -62.68,7.08 0,0 0.62,-8.3 0.62,-17.98 0,-9.68 -0.62,-17.99 -0.62,-17.99 23.23,7.77 49.31,7.25 62.68,7.03 v -32.37 c -12.19,-0.1 -29.74,0.48 -49.6,7.12 0,0 0.62,-8.3 0.62,-17.98 0,-9.68 -0.62,-17.98 -0.62,-17.98 19.83,6.62 37.36,7.22 49.54,7.11 -0.62,-20.5 -6.6,-46.33 -6.6,-46.33 0,0 12.3,0.96 17.22,0.96 4.92,0 17.21,-0.96 17.21,-0.96 0,0 -5.97,25.83 -6.6,46.33 12.18,0.1 29.72,-0.49 49.55,-7.11 0,0 -0.62,8.3 -0.62,17.98 0,9.67 0.62,17.98 0.62,17.98 -19.86,-6.64 -37.42,-7.22 -49.6,-7.12 v 32.37"
       id="path6" />
    <path
       fill="#254aa5"
       d="m 270,329.1 c -24.87,0 -38.19,34.46 -38.19,34.46 0,0 -7.4,-16.34 -27.68,-16.34 -13.73,0 -23.82,12.2 -30.25,23.5 24.97,39.7 64.8,64.2 96.11,79.28 31.32,-15.07 71.16,-39.58 96.13,-79.28 -6.43,-11.3 -16.52,-23.5 -30.25,-23.5 a 30.52,30.52 0 0 0 -27.69,16.34 c 0,0 -13.32,-34.46 -38.19,-34.46 z"
       id="path7" />
  </g>
  <metadata
     id="metadata7">
    <rdf:RDF>
      <cc:Work
         rdf:about="">
        <dc:title>Flag of Slovakia</dc:title>
      </cc:Work>
    </rdf:RDF>
  </metadata>
</svg>
